  <svg xmlns="http://www.w3.org/2000/svg">
    <symbol class="logo-mobile" viewBox="0 0 74 23" id="logo-mobile">
    <path d="M.005 1.549c0-.336.13-.66.365-.9C.604.41.922.27 1.257.262H8.39c5.057 0 8.385 2.703 8.385 7.13v.06c0 4.846-4.033 7.358-8.802 7.358H2.538v6.801a1.28 1.28 0 0 1-.754 1.28 1.269 1.269 0 0 1-1.717-.758 1.28 1.28 0 0 1-.062-.522V1.549Zm8.067 10.968c3.706 0 6.14-1.994 6.14-4.986v-.06c0-3.21-2.394-4.875-5.961-4.875H2.588v9.881l5.484.04ZM21.593 1.389a1.282 1.282 0 0 1 .755-1.28 1.268 1.268 0 0 1 1.717.758c.056.168.077.346.062.522v20.222a1.28 1.28 0 0 1-.754 1.28 1.27 1.27 0 0 1-1.717-.758 1.282 1.282 0 0 1-.063-.522V1.389ZM30.674 1.419A1.278 1.278 0 0 1 31.926.173h.348a1.535 1.535 0 0 1 1.281.737l13.6 17.4V1.36A1.239 1.239 0 0 1 48.389.122c.327 0 .64.13.871.362.231.232.36.546.36.874v20.292a1.14 1.14 0 0 1-.703 1.092 1.13 1.13 0 0 1-.449.085h-.129a1.695 1.695 0 0 1-1.311-.778L33.117 4.24v17.41a1.258 1.258 0 0 1-1.191 1.247 1.238 1.238 0 0 1-1.212-1.247V1.42h-.04ZM55.938 1.389a1.282 1.282 0 0 1 .755-1.28 1.268 1.268 0 0 1 1.717.758c.056.168.077.346.062.522v12.295L71.228.55c.262-.271.618-.432.994-.448a1.27 1.27 0 0 1 1.222 1.256 1.29 1.29 0 0 1-.418.898l-7.947 7.897 8.573 10.53c.224.26.348.593.348.937a1.312 1.312 0 0 1-.838 1.191 1.228 1.228 0 0 1-1.497-.493L63.3 11.859l-4.828 4.846v4.886a1.27 1.27 0 0 1-.78 1.17 1.259 1.259 0 0 1-1.648-.685 1.27 1.27 0 0 1-.096-.485V1.389h-.01Z" fill="#fff"/>
    </symbol>

    <symbol viewBox="0 0 145 40" id="logo-tablet">
    <path fill-rule="evenodd" clip-rule="evenodd" d="m53.9 6.59 5.03 21.14a1.42 1.42 0 0 1-.75 1.72c-.2.09-.43.13-.65.11h-4.01a11.63 11.63 0 0 1-11.49 10.32c-5.92 0-10.8-4.5-11.49-10.32h-1.96A11.75 11.75 0 0 1 16.97 40c-6 0-10.94-4.57-11.61-10.47H1.45A1.36 1.36 0 0 1 .3 29a1.42 1.42 0 0 1-.24-1.27L5.1 6.6C5.46 4.26 7.64 0 13.5 0c.38 0 .76.16 1.03.44a1.5 1.5 0 0 1 0 2.1c-.27.27-.65.43-1.03.43-4.71 0-5.44 3.7-5.5 4.1L3.34 26.6h2.03a11.75 11.75 0 0 1 11.6-10.3c5.94 0 10.84 4.48 11.6 10.3h1.99a11.63 11.63 0 0 1 11.47-10.19c5.89 0 10.75 4.46 11.48 10.23v-.06h2.14L51 7.08c-.07-.41-.77-4.1-5.5-4.1-.39 0-.76-.17-1.03-.44a1.5 1.5 0 0 1 0-2.1c.27-.28.64-.44 1.03-.44 5.85 0 8.03 4.26 8.38 6.59ZM25.66 29.56a9.12 9.12 0 0 0-.02-2.97 8.85 8.85 0 0 0-8.68-7.38 8.85 8.85 0 0 0-8.82 8.94 8.85 8.85 0 0 0 8.81 8.94c4.4 0 8.04-3.26 8.71-7.53Zm24.94 0a8.75 8.75 0 0 0-8.58-10.23 8.75 8.75 0 0 0-8.58 10.23 8.73 8.73 0 0 0 8.58 7.4c4.33 0 7.91-3.2 8.58-7.4Z" fill="#fff"/><path d="M71 18.55a1.29 1.29 0 0 1 1.26-1.29h7.13c5.06 0 8.39 2.7 8.39 7.13v.06c0 4.85-4.04 7.36-8.8 7.36h-5.44v6.8A1.28 1.28 0 0 1 72.27 40 1.27 1.27 0 0 1 71 38.61V18.55Zm8.07 10.97c3.7 0 6.14-2 6.14-4.99v-.06c0-3.2-2.4-4.87-5.96-4.87H73.6v9.88l5.48.04ZM92.6 18.39A1.28 1.28 0 0 1 93.85 17a1.27 1.27 0 0 1 1.27 1.39V38.6A1.28 1.28 0 0 1 93.86 40a1.27 1.27 0 0 1-1.27-1.39V18.4ZM101.67 18.42a1.28 1.28 0 0 1 1.26-1.25h.34a1.53 1.53 0 0 1 1.29.74l13.6 17.4V18.36a1.24 1.24 0 0 1 1.23-1.24 1.23 1.23 0 0 1 1.23 1.24v20.3a1.16 1.16 0 0 1-.32.83 1.13 1.13 0 0 1-.83.34h-.13a1.69 1.69 0 0 1-1.31-.78l-13.91-17.8v17.4a1.26 1.26 0 0 1-1.2 1.25 1.23 1.23 0 0 1-1.2-1.25V18.42h-.05ZM126.94 18.39A1.28 1.28 0 0 1 128.2 17a1.27 1.27 0 0 1 1.26 1.39v12.3l12.76-13.14c.26-.27.62-.43 1-.45a1.27 1.27 0 0 1 1.21 1.26 1.3 1.3 0 0 1-.41.9l-7.95 7.9 8.57 10.52c.23.26.35.6.35.94a1.33 1.33 0 0 1-.4.92 1.29 1.29 0 0 1-.94.36 1.23 1.23 0 0 1-1-.58l-8.36-10.46-4.83 4.85v4.88a1.28 1.28 0 0 1-.78 1.17 1.26 1.26 0 0 1-1.74-1.17V18.4h-.01Z" fill="#fff"/>
    </symbol>

    <symbol viewBox="0 0 147 40" id="logo-desktop">
    <path d="M72.2 18.42c0-.33.13-.65.36-.89.24-.23.56-.37.9-.38h7.21c5.11 0 8.48 2.68 8.48 7.06v.06c0 4.8-4.08 7.29-8.9 7.29h-5.5v6.73a1.24 1.24 0 0 1-.33.97 1.29 1.29 0 0 1-1.46.3 1.29 1.29 0 0 1-.7-.75 1.24 1.24 0 0 1-.07-.52V18.42Zm8.15 10.87c3.75 0 6.2-1.98 6.2-4.94v-.06c0-3.18-2.41-4.83-6.02-4.83H74.8v9.79l5.55.04ZM94.02 18.27a1.24 1.24 0 0 1 .33-.97 1.29 1.29 0 0 1 .95-.4 1.3 1.3 0 0 1 .95.4 1.26 1.26 0 0 1 .33.97v20.02a1.25 1.25 0 0 1-.33.97 1.28 1.28 0 0 1-.95.4 1.3 1.3 0 0 1-.95-.4 1.26 1.26 0 0 1-.33-.97V18.27ZM103.2 18.3c0-.33.14-.64.38-.87.23-.23.55-.36.88-.37h.36a1.58 1.58 0 0 1 1.3.73l13.74 17.23V18.24c0-.33.13-.64.37-.87a1.26 1.26 0 0 1 1.76 0c.23.23.36.54.36.87v20.1a1.09 1.09 0 0 1-.32.82 1.15 1.15 0 0 1-.84.34h-.13a1.74 1.74 0 0 1-1.33-.77l-14.06-17.64v17.24c0 .32-.13.62-.35.85-.23.23-.53.37-.86.39-.32-.01-.64-.14-.87-.37a1.21 1.21 0 0 1-.35-.87V18.3h-.04ZM128.74 18.27a1.24 1.24 0 0 1 .33-.97 1.29 1.29 0 0 1 .95-.4 1.3 1.3 0 0 1 .95.4 1.25 1.25 0 0 1 .33.97v12.17l12.9-13a1.5 1.5 0 0 1 1-.45c.33.02.64.15.87.38.23.23.36.54.37.87a1.26 1.26 0 0 1-.42.89l-8.04 7.82 8.67 10.42c.22.26.35.59.35.93a1.27 1.27 0 0 1-.41.91 1.32 1.32 0 0 1-.95.36 1.26 1.26 0 0 1-1-.58l-8.46-10.36-4.88 4.8v4.84a1.24 1.24 0 0 1-.79 1.16 1.3 1.3 0 0 1-1.66-.68c-.07-.15-.1-.31-.1-.48v-20h-.01Z" fill="#fff"/><path d="M98.94 9.75c-.97 0-1.9-.38-2.57-1.05a3.55 3.55 0 0 1-1.08-2.53c0 .95-.38 1.86-1.06 2.53a3.67 3.67 0 0 1-2.57 1.05c.96 0 1.89.38 2.57 1.05a3.55 3.55 0 0 1 1.06 2.53c0-.95.4-1.86 1.07-2.53a3.69 3.69 0 0 1 2.58-1.05Z" fill="#D22856"/><path d="M43.29 19.07h.73a2.47 2.47 0 0 0-2.14-1.22 2.03 2.03 0 0 1-1.9-1.33c-.72.2-1.42.48-2.1.8h.2c.53 0 1.04.22 1.41.59.38.37.6.87.6 1.4v.28a8.98 8.98 0 0 1 3.2-.52Z" fill="#fff"/><path d="M60.73 27.65 55.54 6.57C55.18 4.25 52.93 0 46.9 0c-.4 0-.78.16-1.06.43a1.47 1.47 0 0 0 0 2.1c.28.28.66.43 1.06.43 4.87 0 5.6 3.69 5.67 4.09l4.78 19.45h-2.1a11.72 11.72 0 0 0-5.32-8.41 2.5 2.5 0 0 0-1.54 2.27 2 2 0 0 1 0 .26 9.15 9.15 0 0 1 4.02 7.37c0 .5-.06 1-.14 1.48a8.85 8.85 0 0 1-3.05 5.4 9.13 9.13 0 0 1-11.77 0 8.85 8.85 0 0 1-3.05-5.4 9.03 9.03 0 0 1-.14-1.48 9.1 9.1 0 0 1 .95-3.95c-.5-.03-.98-.26-1.33-.62a1.96 1.96 0 0 1-.54-1.35.7.7 0 0 0-.19-.49 11.57 11.57 0 0 0-1.8 4.94H29.5a11.78 11.78 0 0 0-3.94-7.54 12.17 12.17 0 0 0-16.1 0 11.78 11.78 0 0 0-3.93 7.54H3.44l4.8-19.47c.05-.4.8-4.09 5.66-4.09.4 0 .78-.15 1.06-.43a1.47 1.47 0 0 0 0-2.1A1.52 1.52 0 0 0 13.9 0C7.87 0 5.62 4.25 5.26 6.57L.06 27.65A1.38 1.38 0 0 0 .3 28.9a1.42 1.42 0 0 0 1.2.53H5.5c.08.61.21 1.22.38 1.81.07-.1.1-.23.1-.35A2.03 2.03 0 0 1 8.5 29a8.84 8.84 0 0 1 .06-2.53 8.85 8.85 0 0 1 3.04-5.41 9.13 9.13 0 0 1 11.8 0 8.85 8.85 0 0 1 3.03 5.41 8.87 8.87 0 0 1-2.53 7.75 9.18 9.18 0 0 1-6.38 2.62 9.15 9.15 0 0 1-5.45-1.7c-.36.3-.83.47-1.3.48-.2 0-.4.08-.53.22a.73.73 0 0 0-.22.52c0 .27-.06.54-.18.8a12.09 12.09 0 0 0 7.64 2.7c2.95.01 5.8-1.04 8.02-2.95a11.79 11.79 0 0 0 4-7.44h1.82c.34 2.9 1.74 5.57 3.95 7.51a12.17 12.17 0 0 0 16.06 0 11.78 11.78 0 0 0 3.95-7.5h4.02a1.44 1.44 0 0 0 1.22-.54 1.38 1.38 0 0 0 .22-1.3Z" fill="#fff"/><path d="M50.92 15.92a4.58 4.58 0 0 1-4.18-2.74 4.37 4.37 0 0 1-.34-1.7 4.4 4.4 0 0 1-1.33 3.14c-.84.83-2 1.3-3.19 1.3 1.2 0 2.35.47 3.2 1.3a4.42 4.42 0 0 1 1.32 3.14c0-1.18.48-2.3 1.32-3.14.85-.83 2-1.3 3.2-1.3ZM38.07 19.38c-.73 0-1.43-.28-1.95-.8a2.7 2.7 0 0 1-.8-1.91c0 .72-.3 1.4-.81 1.91-.52.51-1.22.8-1.95.8.73 0 1.43.29 1.95.8.51.5.8 1.2.8 1.9 0-.71.3-1.4.81-1.9.52-.51 1.22-.8 1.95-.8ZM10.79 33.64c-.73 0-1.43-.3-1.95-.8a2.7 2.7 0 0 1-.8-1.91c0 .71-.29 1.4-.8 1.91-.52.51-1.22.8-1.95.8.73 0 1.43.3 1.95.8.51.5.8 1.2.8 1.92 0-.72.3-1.4.8-1.92.52-.5 1.22-.8 1.95-.8Z" fill="#D22856"/>
    </symbol>

    <symbol viewBox="0 0 47 56" id="logo-apple">
    <path d="M39.24 29.74c.01 2.41.75 4.77 2.13 6.79A12.67 12.67 0 0 0 47 41.06a29.8 29.8 0 0 1-4 7.96c-2.4 3.42-4.9 6.82-8.84 6.9-3.94.1-5.1-2.21-9.53-2.21-4.44 0-5.8 2.15-9.46 2.29-3.67.13-6.7-3.72-9.1-7.12-4.95-6.9-8.75-19.63-3.66-28.2 1.2-2.07 2.93-3.8 5.03-5.03a14.49 14.49 0 0 1 6.93-1.98c3.73-.07 7.25 2.43 9.53 2.43 2.28 0 6.56-3.01 11.06-2.57 2.08.08 4.12.62 5.95 1.58 1.84.96 3.41 2.32 4.61 3.98-.27.16-6.3 3.57-6.24 10.65h-.04Zm-7.26-20.8a12.07 12.07 0 0 0 3-8.94c-3.3.3-6.36 1.82-8.55 4.24-1.86 2.1-3.5 5.45-3.05 8.66 3.25.25 6.55-1.6 8.57-3.94" fill="#fff"/>
    </symbol>

    <symbol viewBox="0 0 43 47" id="logo-android">
    <path d="M34.89 14.06H8.1V33.2c0 .92.34 1.8.96 2.47a3.7 3.7 0 0 0 2.43 1.16v7.46c.04.73.37 1.42.92 1.93a2.99 2.99 0 0 0 4.05 0c.55-.5.88-1.2.92-1.93v-7.44h8.24v7.44c.04.73.37 1.42.92 1.93a2.99 2.99 0 0 0 4.05 0c.55-.5.88-1.2.92-1.93v-7.46a3.7 3.7 0 0 0 2.43-1.16c.63-.67.97-1.55.97-2.46V14.4l-.03-.34ZM2.95 15.74c.78 0 1.53.3 2.08.85.56.54.87 1.27.87 2.04v12.4a2.84 2.84 0 0 1-.86 2.05 2.95 2.95 0 0 1-2.09.85c-.78 0-1.53-.3-2.09-.85A2.87 2.87 0 0 1 0 31.03v-12.4a2.84 2.84 0 0 1 .87-2.04 2.95 2.95 0 0 1 2.08-.85ZM40.06 15.74c.78 0 1.53.3 2.08.85.55.54.86 1.27.86 2.04v12.4a2.84 2.84 0 0 1-.86 2.05 2.95 2.95 0 0 1-2.08.85c-.79 0-1.54-.3-2.1-.85a2.87 2.87 0 0 1-.86-2.05v-12.4a2.84 2.84 0 0 1 .87-2.04 2.95 2.95 0 0 1 2.09-.85ZM8.17 12.06h26.57a10.4 10.4 0 0 0-3.26-7.3L34.05.5a.3.3 0 0 0-.12-.46.32.32 0 0 0-.42.1L31.09 4.3A16.7 16.7 0 0 0 21.46.9a16.98 16.98 0 0 0-9.58 3.4L9.5.2a.32.32 0 0 0-.18-.16.33.33 0 0 0-.25 0 .31.31 0 0 0-.11.42l2.5 4.25a10.44 10.44 0 0 0-3.29 7.36Zm17.7-5.21c0-.4.17-.78.45-1.06a1.55 1.55 0 0 1 2.17 0 1.49 1.49 0 0 1 0 2.12 1.55 1.55 0 0 1-2.17 0 1.49 1.49 0 0 1-.45-1.06Zm-11.38 0c0-.4.16-.78.45-1.06a1.55 1.55 0 0 1 2.17 0 1.49 1.49 0 0 1 0 2.12 1.55 1.55 0 0 1-2.17 0 1.49 1.49 0 0 1-.45-1.06Z" fill="#A4C639"/>
    </symbol>

    <symbol viewBox="0 0 44 41" id="logo-microsoft">
    <path d="M20.9 19.52H0V0h20.9v19.52Z" fill="#F05423"/><path d="M44 19.52H23.1V0H44v19.52Z" fill="#84C441"/><path d="M20.9 41H0V21.48h20.9V41Z" fill="#2DABE2"/><path d="M44 41H23.1V21.48H44V41Z" fill="#F9BC15"/>
    </symbol>

    <!-- <svg width="145" height="40" fill="none" xmlns="http://www.w3.org/2000/svg"> -->
    <symbol viewBox="0 0 145 40" id="footer-logo-mobile">
    <path d="M71 18.55a1.29 1.29 0 0 1 1.26-1.29h7.13c5.06 0 8.39 2.7 8.39 7.13v.06c0 4.85-4.04 7.36-8.8 7.36h-5.44v6.8A1.28 1.28 0 0 1 72.27 40 1.27 1.27 0 0 1 71 38.61V18.55Zm8.07 10.97c3.7 0 6.14-2 6.14-4.99v-.06c0-3.2-2.4-4.87-5.96-4.87H73.6v9.88l5.48.04ZM92.6 18.39A1.28 1.28 0 0 1 93.85 17a1.27 1.27 0 0 1 1.27 1.39V38.6A1.28 1.28 0 0 1 93.86 40a1.27 1.27 0 0 1-1.27-1.39V18.4ZM101.67 18.42a1.28 1.28 0 0 1 1.26-1.25h.34a1.53 1.53 0 0 1 1.29.74l13.6 17.4V18.36a1.24 1.24 0 0 1 1.23-1.24 1.23 1.23 0 0 1 1.23 1.24v20.3a1.16 1.16 0 0 1-.32.83 1.13 1.13 0 0 1-.83.34h-.13a1.69 1.69 0 0 1-1.31-.78l-13.91-17.8v17.4a1.26 1.26 0 0 1-1.2 1.25 1.23 1.23 0 0 1-1.2-1.25V18.42h-.05ZM126.94 18.39A1.28 1.28 0 0 1 128.2 17a1.27 1.27 0 0 1 1.26 1.39v12.3l12.76-13.14c.26-.27.62-.43 1-.45a1.27 1.27 0 0 1 1.21 1.26 1.3 1.3 0 0 1-.41.9l-7.95 7.9 8.57 10.52c.23.26.35.6.35.94a1.33 1.33 0 0 1-.4.92 1.29 1.29 0 0 1-.94.36 1.23 1.23 0 0 1-1-.58l-8.36-10.46-4.83 4.85v4.88a1.28 1.28 0 0 1-.78 1.17 1.26 1.26 0 0 1-1.74-1.17V18.4h-.01Z" fill="#283645"/><path fill-rule="evenodd" clip-rule="evenodd" d="m53.9 6.59 5.03 21.14a1.42 1.42 0 0 1-.75 1.72c-.2.09-.43.13-.65.11h-4.01a11.63 11.63 0 0 1-11.49 10.32c-5.92 0-10.8-4.5-11.49-10.32h-1.96A11.75 11.75 0 0 1 16.97 40c-6 0-10.94-4.57-11.61-10.47H1.45A1.36 1.36 0 0 1 .3 29a1.42 1.42 0 0 1-.24-1.27L5.1 6.6C5.46 4.26 7.64 0 13.5 0c.38 0 .76.16 1.03.44a1.5 1.5 0 0 1 0 2.1c-.27.27-.65.43-1.03.43-4.71 0-5.44 3.7-5.5 4.1L3.34 26.6h2.03a11.75 11.75 0 0 1 11.6-10.3c5.94 0 10.84 4.48 11.6 10.3h1.99a11.63 11.63 0 0 1 11.47-10.19c5.89 0 10.75 4.46 11.48 10.23v-.06h2.14L51 7.08c-.07-.41-.77-4.1-5.5-4.1-.39 0-.76-.17-1.03-.44a1.5 1.5 0 0 1 0-2.1c.27-.28.64-.44 1.03-.44 5.85 0 8.03 4.26 8.38 6.59ZM25.66 29.56a9.12 9.12 0 0 0-.02-2.97 8.85 8.85 0 0 0-8.68-7.38 8.85 8.85 0 0 0-8.82 8.94 8.85 8.85 0 0 0 8.81 8.94c4.4 0 8.04-3.26 8.71-7.53Zm24.94 0a8.75 8.75 0 0 0-8.58-10.23 8.75 8.75 0 0 0-8.58 10.23 8.73 8.73 0 0 0 8.58 7.4c4.33 0 7.91-3.2 8.58-7.4Z" fill="#D22856"/>
    </symbol>

    <!-- <svg width="147" height="40" fill="none" xmlns="http://www.w3.org/2000/svg"> -->
    <symbol viewBox="0 0 147 40" id="footer-logo-desktop">
    <path d="M72.2 18.43c0-.34.13-.66.36-.9.24-.23.56-.37.9-.38h7.21c5.11 0 8.48 2.68 8.48 7.06v.06c0 4.8-4.08 7.29-8.9 7.29h-5.5v6.73a1.24 1.24 0 0 1-.33.97 1.29 1.29 0 0 1-1.46.3 1.29 1.29 0 0 1-.7-.75 1.24 1.24 0 0 1-.07-.52V18.43Zm8.15 10.86c3.75 0 6.2-1.98 6.2-4.94v-.06c0-3.18-2.41-4.83-6.02-4.83H74.8v9.79l5.55.04ZM94.02 18.27a1.24 1.24 0 0 1 .33-.97 1.29 1.29 0 0 1 1.47-.3 1.29 1.29 0 0 1 .7.75c.05.17.08.34.06.52v20.02a1.25 1.25 0 0 1-.33.97 1.29 1.29 0 0 1-.95.4 1.3 1.3 0 0 1-.95-.4 1.26 1.26 0 0 1-.33-.97V18.27ZM103.2 18.3c0-.33.14-.64.38-.87.23-.23.55-.36.88-.37h.36a1.58 1.58 0 0 1 1.3.73l13.74 17.23V18.24c0-.33.13-.64.37-.87a1.26 1.26 0 0 1 1.76 0c.23.23.36.54.36.87v20.1a1.09 1.09 0 0 1-.32.82 1.15 1.15 0 0 1-.84.34h-.13a1.74 1.74 0 0 1-1.33-.77l-14.06-17.64v17.24c0 .32-.13.62-.35.85-.23.23-.53.37-.86.38a1.21 1.21 0 0 1-1.22-1.23V18.3h-.04ZM128.74 18.27a1.26 1.26 0 0 1 1.28-1.38 1.3 1.3 0 0 1 .95.41 1.25 1.25 0 0 1 .33.97v12.17l12.9-13a1.5 1.5 0 0 1 1-.45c.33.02.64.15.87.38.23.23.36.54.37.87a1.24 1.24 0 0 1-.42.89l-8.04 7.82 8.67 10.42c.22.26.35.6.35.93a1.28 1.28 0 0 1-.85 1.18 1.23 1.23 0 0 1-1.51-.49l-8.45-10.36-4.89 4.8v4.84a1.22 1.22 0 0 1-.37.89 1.27 1.27 0 0 1-.9.37 1.3 1.3 0 0 1-1.18-.78c-.07-.15-.1-.31-.1-.48v-20h-.01Z" fill="#283645"/><path d="M98.94 9.75c-.97 0-1.9-.38-2.57-1.05a3.55 3.55 0 0 1-1.08-2.53c0 .95-.38 1.86-1.06 2.53a3.67 3.67 0 0 1-2.57 1.05c.96 0 1.89.38 2.57 1.05a3.55 3.55 0 0 1 1.06 2.53c0-.95.4-1.86 1.07-2.53a3.69 3.69 0 0 1 2.58-1.05ZM43.29 19.07h.73a2.47 2.47 0 0 0-2.14-1.22 2.03 2.03 0 0 1-1.9-1.33c-.72.2-1.42.48-2.1.8h.2c.53 0 1.04.22 1.41.59.38.37.6.87.6 1.4v.28a8.97 8.97 0 0 1 3.2-.52Z" fill="#D22856"/><path d="M60.73 27.65 55.54 6.57C55.18 4.25 52.93 0 46.9 0c-.4 0-.78.16-1.06.43a1.47 1.47 0 0 0 0 2.1c.28.28.66.43 1.06.43 4.87 0 5.6 3.69 5.67 4.09l4.78 19.45h-2.1a11.72 11.72 0 0 0-5.32-8.41 2.5 2.5 0 0 0-1.54 2.27 2 2 0 0 1 0 .26 9.15 9.15 0 0 1 4.02 7.37c0 .5-.06 1-.14 1.48a8.85 8.85 0 0 1-3.05 5.4 9.13 9.13 0 0 1-11.77 0 8.85 8.85 0 0 1-3.05-5.4 9.03 9.03 0 0 1-.14-1.48 9.1 9.1 0 0 1 .95-3.95c-.5-.03-.98-.26-1.33-.62a1.96 1.96 0 0 1-.54-1.35.7.7 0 0 0-.19-.49 11.57 11.57 0 0 0-1.8 4.94H29.5a11.78 11.78 0 0 0-3.94-7.54 12.17 12.17 0 0 0-16.1 0 11.78 11.78 0 0 0-3.93 7.54H3.44l4.8-19.47c.05-.4.8-4.09 5.66-4.09.4 0 .78-.15 1.06-.43a1.47 1.47 0 0 0 0-2.1A1.52 1.52 0 0 0 13.9 0C7.87 0 5.62 4.25 5.26 6.57L.06 27.65A1.38 1.38 0 0 0 .3 28.9a1.42 1.42 0 0 0 1.2.53H5.5c.08.61.21 1.22.38 1.81.07-.1.1-.23.1-.35a2.03 2.03 0 0 1 2.5-1.92 8.54 8.54 0 0 1 .06-2.47 8.85 8.85 0 0 1 3.04-5.41 9.13 9.13 0 0 1 11.8 0 8.85 8.85 0 0 1 3.03 5.41 8.78 8.78 0 0 1-1.2 6.18 9.17 9.17 0 0 1-13.16 2.44c-.36.31-.82.48-1.3.49-.2 0-.4.08-.53.22a.73.73 0 0 0-.22.52c0 .27-.06.54-.18.8a12.09 12.09 0 0 0 7.64 2.7c2.95.01 5.8-1.04 8.02-2.95a11.79 11.79 0 0 0 4-7.44h1.82c.34 2.9 1.74 5.57 3.95 7.51a12.17 12.17 0 0 0 16.06 0 11.78 11.78 0 0 0 3.95-7.5h4.02a1.44 1.44 0 0 0 1.22-.54 1.38 1.38 0 0 0 .22-1.3Z" fill="#D22856"/><path d="M50.92 15.92a4.58 4.58 0 0 1-3.2-1.3 4.43 4.43 0 0 1-1.32-3.14 4.4 4.4 0 0 1-1.33 3.14c-.84.83-2 1.3-3.19 1.3 1.2 0 2.35.47 3.2 1.3a4.42 4.42 0 0 1 1.32 3.14c0-1.18.48-2.3 1.32-3.14.85-.83 2-1.3 3.2-1.3ZM38.07 19.38c-.73 0-1.43-.28-1.95-.8a2.7 2.7 0 0 1-.8-1.91c0 .72-.3 1.4-.81 1.91-.52.51-1.22.8-1.95.8.73 0 1.43.29 1.95.8.51.5.8 1.2.8 1.9 0-.71.3-1.4.81-1.9.52-.51 1.22-.8 1.95-.8ZM10.79 33.64c-.73 0-1.43-.3-1.95-.8a2.7 2.7 0 0 1-.8-1.91c0 .71-.29 1.4-.8 1.91-.52.51-1.22.8-1.95.8.73 0 1.43.3 1.95.8.51.5.8 1.2.8 1.92 0-.72.3-1.4.8-1.92.52-.5 1.22-.8 1.95-.8Z" fill="#283645"/>
    </symbol>

  </svg>
